<svg width="128" height="39" viewBox="0 0 128 39" fill="none" xmlns="http://www.w3.org/2000/svg">
<g filter="url(#filter0_d_1619_1255)">
<path d="M33.0764 2.03924V1.32626H22.5068V1.35211C20.9298 1.4679 19.4037 1.96043 18.0572 2.7882C16.7107 3.61598 15.5832 4.75474 14.7698 6.10854C14.1681 -0.429437 4.22428 -0.00165188 4.22428 6.60228C4.21268 9.62618 6.81758 12.0699 9.83938 11.8667C8.26949 12.6158 6.92575 13.7658 5.94424 15.2001C4.96274 16.6345 4.37832 18.3023 4.25017 20.0347H4.22428V30.5868C7.99149 30.806 11.5373 28.9095 13.3656 25.8446V30.5868C18.7914 30.9236 23.5424 26.832 23.9093 21.4607H23.9352V21.4348C29.3155 21.073 33.4157 16.3255 33.0764 10.9086H27.4854C29.1589 10.1053 30.5713 8.84676 31.5604 7.27778C32.5494 5.7088 33.0749 3.89305 33.0764 2.03924ZM14.8653 19.68C15.2929 15.8415 18.6504 12.626 22.5113 12.3649V20.0347H14.8242C14.8341 19.9162 14.8474 19.7977 14.8608 19.68H14.8653ZM22.5068 2.78251V10.4523H14.8242C14.9951 8.47544 15.8595 6.62218 17.2649 5.2191C18.6703 3.81602 20.5266 2.95315 22.5068 2.78251ZM5.65261 6.60228C5.74188 1.54283 13.2754 1.54283 13.3656 6.60228C13.2745 11.6644 5.74188 11.6644 5.65261 6.60228ZM14.0797 12.3346H18.1031C15.4143 13.9548 13.5905 16.9003 13.3906 20.0347H5.68296C5.86428 17.9354 6.82713 15.9801 8.38154 14.5546C9.93596 13.1292 11.9691 12.3371 14.0797 12.3346ZM5.65261 29.1323V21.4607H13.3352C13.1642 23.4377 12.2999 25.2911 10.8945 26.6944C9.48917 28.0978 7.63289 28.9611 5.65261 29.1323ZM14.7939 29.1323V21.4607H22.4765C22.3056 23.4378 21.4414 25.2913 20.036 26.6946C18.6306 28.098 16.7742 28.9612 14.7939 29.1323ZM23.9352 20.0062V12.3346H31.6177C31.4469 14.3116 30.5826 16.165 29.1772 17.5682C27.7718 18.9714 25.9154 19.8345 23.9352 20.0053V20.0062ZM23.9352 10.4229V2.75221H31.6177C31.4468 4.72912 30.5825 6.58237 29.1771 7.98546C27.7717 9.38854 25.9153 10.2514 23.9352 10.422V10.4229Z" fill="#F0F2F5"/>
</g>
<path d="M42.0495 24.9019V11.855H45.8582V16.7172H50.3558V11.855H54.1645V24.9019H50.3558V20.0397H45.8582V24.9019H42.0495ZM54.9845 24.9019V11.855H58.692L61.9334 18.4797L65.1546 11.855H68.8418V24.9019H65.0331V18.3784L62.9464 22.6734H60.9002L58.7932 18.3784V24.9019H54.9845ZM69.6606 24.9019V11.855H73.4693V24.9019H69.6606ZM74.2862 24.9019V11.855H84.0916V14.6913H78.0949V16.94H83.3218V19.8169H78.0949V24.9019H74.2862ZM93.2135 25.1045C91.4172 25.1045 89.9923 24.6723 88.9388 23.8079C87.8988 22.93 87.3788 21.6604 87.3788 19.9992V11.855H90.1138V19.7966C90.1138 20.796 90.384 21.5456 90.9242 22.0454C91.4645 22.5316 92.2275 22.7747 93.2135 22.7747C94.1994 22.7747 94.9558 22.5316 95.4825 22.0454C96.0228 21.5456 96.2929 20.796 96.2929 19.7966V11.855H99.0279V19.9992C99.0279 21.6604 98.5079 22.93 97.4679 23.8079C96.428 24.6723 95.0098 25.1045 93.2135 25.1045ZM100.217 24.9019V11.855H102.973L106.802 19.6953L110.631 11.855H113.366V24.9019H110.631V16.4133L107.592 22.6531H106.011L102.952 16.4133V24.9019H100.217ZM114.656 24.9019V11.855H117.026L123.205 20.5462V11.855H125.94V24.9019H123.57L117.391 16.2107V24.9019H114.656Z" fill="#F0F2F5"/>
<defs>
<filter id="filter0_d_1619_1255" x="-1" y="0" width="39.3407" height="39.863" filterUnits="userSpaceOnUse" color-interpolation-filters="sRGB">
<feFlood flood-opacity="0" result="BackgroundImageFix"/>
<feColorMatrix in="SourceAlpha" type="matrix" values="0 0 0 0 0 0 0 0 0 0 0 0 0 0 0 0 0 0 127 0" result="hardAlpha"/>
<feOffset dy="4"/>
<feGaussianBlur stdDeviation="2"/>
<feComposite in2="hardAlpha" operator="out"/>
<feColorMatrix type="matrix" values="0 0 0 0 0 0 0 0 0 0 0 0 0 0 0 0 0 0 0.25 0"/>
<feBlend mode="normal" in2="BackgroundImageFix" result="effect1_dropShadow_1619_1255"/>
<feBlend mode="normal" in="SourceGraphic" in2="effect1_dropShadow_1619_1255" result="shape"/>
</filter>
</defs>
</svg>
